# xmcd CD database file
#
# Track frame offsets:
#	150
#	18082
#	40611
#	64424
#	83932
#	111457
#	138712
#	165325
#	183330
#	200279
#	241634
#	266310
#	282745
#	343043
#
# Disc length: 4746 seconds
#
# Revision: 0
# Processed by: cddbd v1.5.2PL0 Copyright (c) Steve Scherf et al.
# Submitted via: CDex 1.51
#
DISCID=c312880e
DTITLE=Quincy Jones - Complete Recordings
DYEAR=2013
DGENRE=Jazz
TTITLE0=Meet B>B.
TTITLE1=The Boy in the Tree
TTITLE2=Evening in Paris
TTITLE3=Air Mail Special
TTITLE4=Lester Leaps In
TTITLE5=G'Wan Train
TTITLE6=Banjs Luko
TTITLE7=Ghana
TTITLE8=Air Mail Special
TTITLE9=Banja Luko
TTITLE10=Bess, You Is My Woman Now
TTITLE11=Solitude
TTITLE12=Stolen Moments
TTITLE13=Moanin'
EXTD=YEAR: 2013
EXTT0=
EXTT1=
EXTT2=
EXTT3=
EXTT4=
EXTT5=
EXTT6=
EXTT7=
EXTT8=
EXTT9=
EXTT10=
EXTT11=
EXTT12=
EXTT13=
PLAYORDER=
